<?xml version="1.0" standalone="no"?><!DOCTYPE svg PUBLIC "-//W3C//DTD SVG 1.1//EN" "http://www.w3.org/Graphics/SVG/1.1/DTD/svg11.dtd"><svg t="1766387838748" class="icon" viewBox="0 0 1024 1024" version="1.1" xmlns="http://www.w3.org/2000/svg" p-id="12418" xmlns:xlink="http://www.w3.org/1999/xlink" width="64" height="64"><path d="M840.59593674 258.67461844l-271.23501764-154.98390482c-31.58739707-18.06124082-83.05534204-18.11397437-114.72183902 0l-271.23501764 154.98390482c-31.58739707 18.06124082-57.37410269 62.41015722-57.37410269 98.9281409l0 308.78130514c0 36.54435086 25.68123935 80.84053289 57.3741027 98.92814091l271.23501763 154.98390481c31.58739707 18.06124082 83.05534204 18.11397437 114.72183902 0l271.23501764-154.98390481c31.58739707-18.06124082 57.37410269-62.41015722 57.37410269-98.92814091l0-308.78130514c0-36.51798368-25.68123935-80.84053289-57.37410269-98.9281409zM724.31845838 474.22300619l-67.76261225 67.41984458c-14.07985812 14.02712458-22.85999396 41.65950531-19.53778024 61.43458612l15.97826595 95.23679233c3.32221372 19.77508163-8.20006677 28.3179169-25.57577224 18.98407837l-83.76724539-44.98171902c-17.40207185-9.33383853-45.8781894-9.33383853-63.25389405 0l-83.76724538 44.98171902c-17.40207185 9.36020489-28.92435233 0.81736963-25.57577226-18.98407837l15.97826596-95.23679233c3.32221372-19.77508163-5.4842893-47.43382873-19.56414742-61.43458612l-67.76261225-67.41984458c-14.07985812-14.02712458-9.6766062-27.84331494 9.7820733-30.74366025l93.6547858-13.89529028c19.45868032-2.90034531 42.47687495-19.98601584 51.17791086-37.96815673l41.89680588-86.64122351c8.70103592-18.00850726 22.9390947-18.00850726 31.64013062 0l41.87043951 86.64122351c8.70103592 18.00850726 31.74559772 35.0941778 51.17791086 37.96815673l93.62841943 13.89529028c19.43231314 2.87397812 23.83556506 16.71653567 9.75570695 30.74366025z" fill="#ffffff" p-id="12419"></path></svg>